# xmcd CD database file
#
# Track frame offsets:
#	150
#	15677
#	30366
#	46423
#	65128
#	77158
#	93201
#	107675
#	116790
#	128860
#
# Disc length: 1931 seconds
#
# Revision: 0
# Processed by: cddbd v1.5.1PL2 Copyright (c) Steve Scherf et al.
# Submitted via: CDex 1.51
#
DISCID=7e07890a
DTITLE=Dan Tyler - True Blue
DYEAR=2005
DGENRE=Jazz
TTITLE0=Whenever I'm Alone With You
TTITLE1=I Beg the Moon
TTITLE2=O, How Marvelous Is Life
TTITLE3=I Give My Star To You
TTITLE4=True Blue
TTITLE5=I'm Hooked
TTITLE6=Maybe I'm Falling
TTITLE7=I Love My Bed
TTITLE8=Feeling Good Tonight
TTITLE9=The Cowboy Blues
EXTD=YEAR: 2005
EXTT0=
EXTT1=
EXTT2=
EXTT3=
EXTT4=
EXTT5=
EXTT6=
EXTT7=
EXTT8=
EXTT9=
PLAYORDER=
